<?xml version="1.0" standalone="no"?>
<!DOCTYPE svg PUBLIC "-//W3C//DTD SVG 20010904//EN"
 "http://www.w3.org/TR/2001/REC-SVG-20010904/DTD/svg10.dtd">
<svg version="1.0" xmlns="http://www.w3.org/2000/svg"
 width="954.000000pt" height="908.000000pt" viewBox="0 0 954.000000 908.000000"
 preserveAspectRatio="xMidYMid meet">

<g transform="translate(0.000000,908.000000) scale(0.100000,-0.100000)"
fill="#000000" stroke="none">
<path d="M5775 9073 c11 -2 67 -13 125 -24 781 -149 1285 -457 1459 -891 56
-138 65 -196 66 -393 0 -152 -4 -196 -23 -282 -76 -339 -262 -713 -530 -1063
-42 -54 -813 -834 -2147 -2170 -1345 -1346 -2104 -2113 -2142 -2165 -139 -186
-261 -416 -328 -620 -70 -214 -113 -511 -102 -692 21 -318 195 -591 471 -737
l68 -36 1769 0 1769 0 68 34 c181 91 348 273 416 453 65 174 59 27 66 1778 6
1568 7 1592 28 1745 86 604 248 1060 573 1612 383 651 613 1219 686 1693 21
136 23 409 4 515 -45 254 -150 440 -362 646 -300 290 -674 485 -1112 579 -115
24 -129 25 -480 24 -199 -1 -353 -3 -342 -6z m-1193 -7820 c68 -30 139 -101
171 -171 34 -73 31 -198 -6 -274 -99 -201 -365 -251 -526 -100 -168 158 -134
426 69 536 93 51 190 54 292 9z"/>
<path d="M6004 8749 c128 -37 253 -110 303 -177 34 -46 79 -141 102 -217 79
-254 0 -497 -239 -735 -127 -128 -340 -279 -550 -393 -109 -58 -160 -92 -157
-102 2 -5 -7 -15 -21 -22 -37 -20 -50 -15 -22 8 l25 20 -38 -18 c-36 -16 -37
-18 -16 -25 13 -5 28 -7 35 -4 7 3 14 -4 16 -17 2 -18 12 -23 47 -28 25 -3 47
-13 53 -22 5 -9 20 -17 33 -17 20 0 25 -5 25 -25 0 -22 4 -25 40 -25 29 0 40
-4 40 -15 0 -11 11 -15 40 -15 29 0 40 -4 40 -15 0 -11 11 -15 40 -15 28 0 40
-4 40 -14 0 -10 13 -16 38 -18 30 -2 38 -7 40 -25 3 -19 10 -23 43 -23 28 0
39 -4 39 -15 0 -11 11 -15 40 -15 36 0 40 -2 40 -25 0 -22 4 -25 40 -25 29 0
40 -4 40 -15 0 -11 11 -15 40 -15 38 0 40 -2 34 -24 -7 -29 11 -43 24 -19 8
14 13 15 25 5 24 -20 27 -60 5 -65 -19 -5 -25 -27 -7 -27 5 0 8 4 5 9 -5 7 18
20 47 25 11 2 13 13 3 23 -5 5 -6 2 -1 -6 5 -10 4 -12 -4 -7 -6 4 -9 11 -6 16
3 4 -2 13 -10 20 -19 16 -19 30 0 30 8 0 20 -10 26 -22 8 -14 14 -18 17 -10 2
6 9 9 15 5 6 -4 8 0 4 10 -4 10 -1 17 6 17 7 0 18 9 25 21 11 17 11 20 0 14
-7 -4 -1 4 14 19 18 17 25 32 21 43 -4 10 -2 14 4 10 11 -7 46 39 46 60 0 7 4
13 9 13 5 0 6 5 3 10 -3 6 -2 10 4 10 30 0 161 328 207 515 52 214 71 530 40
675 -73 343 -344 613 -688 684 -109 23 -150 19 -64 -5z m407 -1982 c-10 -9
-11 -8 -5 6 3 10 9 15 12 12 3 -3 0 -11 -7 -18z"/>
<path d="M5308 7023 c7 -3 16 -2 19 1 4 3 -2 6 -13 5 -11 0 -14 -3 -6 -6z"/>
<path d="M6320 6661 c0 -6 4 -13 10 -16 6 -3 7 1 4 9 -7 18 -14 21 -14 7z"/>
<path d="M6249 6593 c0 -5 -2 -18 -3 -30 -2 -13 -1 -21 2 -18 3 2 14 -1 26 -7
20 -10 20 -10 -1 11 -13 12 -20 28 -17 36 4 8 3 15 0 15 -3 0 -6 -3 -7 -7z"/>
<path d="M6204 6513 c3 -4 0 -13 -7 -22 -10 -14 -10 -14 4 -4 11 9 19 9 26 2
7 -7 13 -7 17 -1 3 6 1 14 -6 19 -16 9 -42 14 -34 6z"/>
<path d="M6170 6499 c0 -5 5 -7 10 -4 6 3 10 8 10 11 0 2 -4 4 -10 4 -5 0 -10
-5 -10 -11z"/>
<path d="M2104 6062 c-22 -20 -110 -100 -195 -177 -177 -160 -540 -520 -681
-675 -594 -652 -971 -1246 -1174 -1850 l-49 -145 -3 -609 -3 -609 27 -81 c235
-711 853 -1335 1784 -1801 192 -96 235 -115 264 -115 14 0 -8 19 -64 57 -224
149 -472 381 -603 564 -77 108 -185 318 -222 434 -83 258 -90 556 -20 850 59
248 178 520 347 790 51 83 114 186 139 230 205 356 357 776 434 1200 56 309
57 336 62 1130 2 407 3 763 1 792 l-3 52 -41 -37z"/>
</g>
</svg>
